PathFileType	4	(X/Y/Z)	 s07c0303.trc
DataRate	CameraRate	NumFrames	NumMarkers	Units	OrigDataRate	OrigDataStartFrame	OrigNumFrames
200	200	4	48	mm	200	251	2000
Frame#	Time	racr			lacr			c7			jug			rlel			rdr			llel			ldr			s2			lic			ric			lasi			rasi			rpsi			lpsi			rgt			lgt			rth1			rth2			rth3			rth4			rlfc			rmfc			rsh1			rsh2			rsh3			rsh4			rlmal			rcal			rtoe			rmt5			lth1			lth2			lth4			lth3			llfc			lmfc			lsh1			lsh2			lsh3			lsh4			llmal			lcal			ltoe			lmt5			SBIKE			LBIKE			RBIKE			
		X1	Y1	Z1	X2	Y2	Z2	X3	Y3	Z3	X4	Y4	Z4	X5	Y5	Z5	X6	Y6	Z6	X7	Y7	Z7	X8	Y8	Z8	X9	Y9	Z9	X10	Y10	Z10	X11	Y11	Z11	X12	Y12	Z12	X13	Y13	Z13	X14	Y14	Z14	X15	Y15	Z15	X16	Y16	Z16	X17	Y17	Z17	X18	Y18	Z18	X19	Y19	Z19	X20	Y20	Z20	X21	Y21	Z21	X22	Y22	Z22	X23	Y23	Z23	X24	Y24	Z24	X25	Y25	Z25	X26	Y26	Z26	X27	Y27	Z27	X28	Y28	Z28	X29	Y29	Z29	X30	Y30	Z30	X31	Y31	Z31	X32	Y32	Z32	X33	Y33	Z33	X34	Y34	Z34	X35	Y35	Z35	X36	Y36	Z36	X37	Y37	Z37	X38	Y38	Z38	X39	Y39	Z39	X40	Y40	Z40	X41	Y41	Z41	X42	Y42	Z42	X43	Y43	Z43	X44	Y44	Z44	X45	Y45	Z45	X46	Y46	Z46	X47	Y47	Z47	X48	Y48	Z48	
251	1.2550	490.177826	1324.711841	-74.192340	469.607131	1318.476379	-369.423731	479.170565	1350.529518	-225.208386	409.674386	1224.464484	-221.560169	458.968183	1007.116887	57.552233	714.470981	914.446334	-45.843712	463.007495	1018.636884	-511.638471	720.671644	916.086366	-402.509191	-122.425162	1219.086452	-235.666519	51.429685	1237.263039	-372.278102	48.534716	1212.463191	-80.681994	64.163689	1152.271447	-350.338179	48.501300	1158.953885	-97.431137	-89.340400	1250.518651	-180.910103	-70.405085	1260.511341	-288.099780	-32.566907	1116.229983	-37.659561	-32.519307	1105.522808	-413.149664	102.944009	1036.741633	-40.340144	185.678626	1010.399252	-52.561806	246.292421	950.167641	-52.454528	201.837655	1039.875032	-68.646382	355.113790	861.216249	-87.191933	347.075321	845.116924	-191.033786	315.787198	721.870210	-62.479352	312.754115	634.096876	-81.662316	270.948922	558.177230	-76.262876	328.256115	633.832747	-118.388336	226.502975	428.688353	-77.547067	161.286566	385.576871	-106.245612	450.579761	372.098688	-118.458595	374.193406	335.692782	-48.491780	29.599247	1003.258019	-418.240389	105.797732	958.548658	-422.753799	131.874436	983.478616	-414.969996	150.077100	881.443878	-420.873732	260.548567	731.979057	-391.292645	249.951047	717.315698	-290.832460	156.902602	622.431461	-409.208124	109.776175	553.620224	-386.969250	31.816865	509.041932	-395.832863	112.877065	555.772693	-345.467578	-72.251285	423.042051	-393.127665	-153.987303	405.758574	-359.277223	117.970875	307.585088	-354.984186	34.312380	307.391308	-419.378463	-257.915911	964.385859	-232.461297	-75.933245	83.489308	-437.243793	-82.307549	79.541969	-39.927925	
252	1.2600	490.193574	1324.736793	-74.175251	469.603274	1318.481994	-369.418808	479.191648	1350.548851	-225.201732	409.705316	1224.485667	-221.505267	459.006693	1007.149714	57.561611	714.474028	914.456820	-45.826073	463.029416	1018.659628	-511.645509	720.673939	916.085453	-402.509569	-122.405276	1219.130620	-235.683714	51.413698	1237.307762	-372.247430	48.570654	1212.479253	-80.686217	64.135591	1152.340193	-350.337896	48.505779	1158.977082	-97.470920	-89.347590	1250.563238	-180.900691	-70.423219	1260.573380	-288.041326	-32.548361	1116.238091	-37.662639	-32.876464	1105.112930	-412.639441	102.943642	1036.697563	-40.341105	185.641019	1010.309915	-52.560470	246.231522	950.027002	-52.462177	201.836938	1039.766919	-68.615885	355.010761	861.038550	-87.208878	346.965841	844.897625	-191.012886	315.682418	721.654510	-62.495775	312.647379	633.873189	-81.678516	270.835731	557.996752	-76.284292	328.113623	633.645305	-118.413665	226.392305	428.467354	-77.545103	161.205076	385.366443	-106.272369	450.510316	372.312235	-118.448842	374.168959	335.683316	-48.488044	29.601814	1003.315912	-418.251046	105.781621	958.589706	-422.742770	131.863024	983.501015	-414.999255	150.054352	881.470842	-420.884631	260.512837	732.010479	-391.249953	249.962122	717.373581	-290.803445	156.889714	622.450818	-409.183674	109.783405	553.627913	-386.973186	31.796074	509.021455	-395.837282	112.868052	555.799406	-345.427079	-72.228407	423.224957	-393.436570	-153.987655	405.775991	-359.273706	117.979978	307.595971	-354.971677	34.299052	307.424797	-419.415082	-257.915938	964.378283	-232.459373	-75.935377	83.497356	-437.243770	-82.308369	79.527795	-39.945514	
253	1.2650	490.220276	1324.756460	-74.197335	469.612831	1318.499559	-369.427004	479.203317	1350.569221	-225.203147	409.725887	1224.499733	-221.520876	459.030420	1007.199266	57.590752	714.475440	914.452356	-45.849009	463.056360	1018.666657	-511.648249	720.676607	916.084796	-402.510429	-122.391207	1219.184657	-235.673429	51.417673	1237.392394	-372.228235	48.597252	1212.507915	-80.688045	64.158421	1152.428842	-350.374712	48.527736	1159.034907	-97.453225	-89.362378	1250.630807	-180.846455	-70.413137	1260.634686	-288.038880	-32.513554	1116.258182	-37.673576	-32.876796	1105.185848	-412.619274	102.931066	1036.690651	-40.360254	185.623946	1010.226684	-52.572874	246.163612	949.891488	-52.481058	201.824133	1039.686886	-68.597429	354.887002	860.884675	-87.233874	346.870050	844.699541	-190.968750	315.550009	721.484153	-62.532049	312.533123	633.727426	-81.703710	270.736468	557.844065	-76.300149	327.996779	633.463155	-118.429230	226.262420	428.287155	-77.570397	161.125839	385.141417	-106.244914	450.435528	372.375530	-118.465081	374.140130	335.699736	-48.466026	29.611961	1003.388905	-418.237617	105.792476	958.622353	-422.714559	131.864952	983.547369	-415.015305	150.042062	881.513764	-420.889052	260.515395	732.067667	-391.203848	249.943244	717.429728	-290.769038	156.898318	622.473344	-409.157687	109.790740	553.660242	-386.945619	31.829591	509.018661	-395.824931	112.879782	555.811069	-345.415319	-72.217591	423.244838	-393.445983	-153.981460	405.799736	-359.288206	117.972930	307.611181	-354.986652	34.301811	307.430254	-419.415043	-257.918694	964.386497	-232.469379	-75.936626	83.504034	-437.246404	-82.289305	79.534013	-39.932620	
254	1.2700	490.249192	1324.781489	-74.233881	469.634398	1318.514515	-369.449045	479.242484	1350.562585	-225.195450	409.758660	1224.546325	-221.534380	459.086521	1007.259642	57.637846	714.489554	914.448937	-45.847675	463.066006	1018.686536	-511.676430	720.679342	916.084656	-402.512065	-122.399250	1219.240420	-235.662949	51.414784	1237.456159	-372.199034	48.625801	1212.536079	-80.692117	64.138176	1152.512321	-350.364511	48.531859	1159.057171	-97.493300	-89.345919	1250.713608	-180.853435	-70.412416	1260.703583	-287.989690	-32.516076	1116.282353	-37.669098	-32.873328	1105.267743	-412.616310	102.948409	1036.661580	-40.378851	185.616019	1010.155647	-52.557345	246.120579	949.778901	-52.531459	201.851101	1039.632652	-68.568848	354.774549	860.755762	-87.270159	346.809169	844.520681	-190.968444	315.445506	721.336964	-62.543826	312.442757	633.607423	-81.741454	270.627299	557.730510	-76.294887	327.883721	633.330080	-118.459928	226.146991	428.140604	-77.611964	161.065150	384.891406	-106.259155	450.396937	372.424454	-118.503769	374.114662	335.686151	-48.478164	29.626702	1003.464990	-418.205901	105.797800	958.675583	-422.667277	131.876395	983.597316	-415.022737	150.019162	881.568966	-420.879950	260.486513	732.103637	-391.149388	249.925566	717.482438	-290.719462	156.910325	622.505591	-409.125739	109.809466	553.672175	-386.912409	31.836550	509.038881	-395.811518	112.875932	555.827085	-345.405765	-72.200260	423.241847	-393.471540	-153.966146	405.820433	-359.294653	117.997087	307.600228	-354.975430	34.316954	307.417142	-419.417404	-257.917286	964.388728	-232.476567	-75.930582	83.486221	-437.253523	-82.310567	79.546190	-39.921073	
